#!OML:ASF F:\VICON\USERDATA\INSTALL\rory3\rory3.ASF
:FULLY-SPECIFIED
:DEGREES
262
root 4.91331e-005 17.0219 5.00012 -13.8151 -78.3635 25.9687
lowerback -5.85809 0.643984 2.50353
upperback -6.90807 0.574829 -0.321235
thorax -3.83298 0.0796356 -1.71386
lowerneck -7.99674 13.0181 8.45436
upperneck 34.0896 16.732 -0.529392
head 13.6646 8.07467 0.723461
rclavicle -6.06293e-015 -6.36111e-015
rhumerus 2.41236 -4.97686 -5.07516
rradius 111.275
rwrist -52.6384
rhand -2.9981 -41.9071
rfingers 7.12502
rthumb 22.7158 -70.59
lclavicle -6.06293e-015 -6.36111e-015
lhumerus 29.6982 27.7995 -9.27736
lradius 43.4759
lwrist 42.7132
lhand -21.3103 -17.9198
lfingers 7.12502
lthumb 5.07474 11.9994
rfemur -38.3275 10.3396 3.11084
rtibia 62.7954
rfoot -6.68202 -9.07692
rtoes -19.0027
lfemur -22.3155 0.178549 -35.0398
ltibia 29.0377
lfoot -16.6357 11.7617
ltoes 7.03654
263
root 0.00912168 17.0118 4.99049 -13.903 -78.2389 26.0736
lowerback -5.79607 0.72108 2.42616
upperback -6.88012 0.683236 -0.351134
thorax -3.83312 0.138043 -1.69922
lowerneck -8.12655 12.8471 8.3507
upperneck 34.3293 16.5315 -0.634133
head 13.7866 7.94829 0.684586
rclavicle -2.72335e-014 1.59028e-015
rhumerus 2.01547 -4.61427 -5.25081
rradius 111.093
rwrist -52.3707
rhand -3.28869 -42.1622
rfingers 7.12502
rthumb 22.4369 -70.879
lclavicle -2.72335e-014 1.59028e-015
lhumerus 30.0198 27.5783 -9.28531
lradius 43.5242
lwrist 43.0965
lhand -21.1794 -18.4321
lfingers 7.12502
lthumb 5.20116 11.4841
rfemur -38.6358 10.1487 3.31033
rtibia 62.8986
rfoot -6.2564 -9.12514
rtoes -22.4141
lfemur -22.5124 0.145413 -35.1799
ltibia 29.1823
lfoot -16.0294 12.4525
ltoes 4.04833
264
root 0.0157541 17.0223 4.98646 -13.6639 -78.1144 25.8192
lowerback -5.71015 0.720138 2.44813
upperback -6.86019 0.685345 -0.369515
thorax -3.85974 0.13849 -1.73123
lowerneck -8.03253 12.767 8.10898
upperneck 34.4467 16.443 -0.571362
head 13.7782 7.88459 0.722532
rclavicle 7.45443e-015 7.15625e-015
rhumerus 1.72282 -4.16273 -5.57913
rradius 110.939
rwrist -52.0195
rhand -3.92652 -43.1042
rfingers 7.12502
rthumb 21.8245 -71.8936
lclavicle 7.45443e-015 7.15625e-015
lhumerus 30.159 27.3829 -9.34021
lradius 43.7038
lwrist 43.1926
lhand -21.0981 -17.9092
lfingers 7.12502
lthumb 5.27959 12.0051
rfemur -38.8345 10.0565 3.56765
rtibia 62.9356
rfoot -5.65402 -9.10626
rtoes -25.5712
lfemur -22.5136 -0.560103 -34.9303
ltibia 29.3442
lfoot -16.8998 11.8615
ltoes 9.89637
265
root 0.0220858 17.0405 4.98825 -13.5158 -78.0014 25.6139
lowerback -5.61098 0.665664 2.53529
upperback -6.81826 0.615323 -0.390817
thorax -3.87384 0.100643 -1.80445
lowerneck -8.17299 12.7493 8.27615
upperneck 34.8106 16.4223 -0.703474
head 14.0059 7.85888 0.671812
rclavicle 4.00551e-014 3.97569e-015
rhumerus 1.5842 -3.75161 -5.98443
rradius 110.887
rwrist -52.0996
rhand -3.80497 -42.9157
rfingers 7.12502
rthumb 21.9412 -71.6914
lclavicle 4.00551e-014 3.97569e-015
lhumerus 30.3664 27.556 -8.51925
lradius 44.0228
lwrist 42.3348
lhand -20.8532 -17.3139
lfingers 7.12502
lthumb 5.5161 12.5943
rfemur -38.9367 10.0695 3.707
rtibia 62.9324
rfoot -5.60961 -8.87228
rtoes -25.5453
lfemur -22.305 -1.72869 -34.5103
ltibia 29.4613
lfoot -18.3116 10.7045
ltoes 18.0511
266
root 0.0282261 17.0458 4.99167 -13.3447 -77.9381 25.3794
lowerback -5.56917 0.67482 2.67552
upperback -6.74472 0.628028 -0.403596
thorax -3.81839 0.103852 -1.89611
lowerneck -8.56956 12.6401 8.56848
upperneck 35.3674 16.2768 -0.971413
head 14.4044 7.76338 0.557164
rclavicle -5.66536e-015 -1.19271e-014
rhumerus 1.3489 -3.38352 -6.25935
rradius 110.901
rwrist -52.1831
rhand -3.61844 -42.2312
rfingers 7.12502
rthumb 22.1203 -70.9858
lclavicle -5.66536e-015 -1.19271e-014
lhumerus 30.2985 27.3601 -8.98294
lradius 44.3627
lwrist 42.939
lhand -20.7214 -16.7173
lfingers 7.12502
lthumb 5.64336 13.1876
rfemur -39.0686 9.93444 3.9899
rtibia 62.9179
rfoot -5.19828 -8.9133
rtoes -27.4076
lfemur -22.2842 -1.97213 -34.4406
ltibia 29.6142
lfoot -18.2638 10.823
ltoes 17.2053
267
root 0.0336884 17.0402 4.98797 -13.0403 -77.9212 25.035
lowerback -5.54312 0.726677 2.69952
upperback -6.67878 0.702017 -0.329119
thorax -3.76026 0.144854 -1.83082
lowerneck -8.62412 12.4956 8.3305
upperneck 35.529 16.1365 -1.04449
head 14.4621 7.6547 0.546819
rclavicle -2.70347e-014 -3.18055e-015
rhumerus 1.05544 -3.02991 -6.52065
rradius 110.787
rwrist -51.8918
rhand -3.21194 -41.8894
rfingers 7.12502
rthumb 22.5106 -70.5973
lclavicle -2.70347e-014 -3.18055e-015
lhumerus 30.394 27.4092 -8.4142
lradius 44.7803
lwrist 42.7281
lhand -20.8157 -17.4236
lfingers 7.12502
lthumb 5.5523 12.4837
rfemur -39.3617 10.1019 4.05809
rtibia 63.026
rfoot -5.83235 -8.47886
rtoes -24.6271
lfemur -22.4694 -1.02976 -34.7629
ltibia 29.6624
lfoot -16.8555 12.0954
ltoes 8.53935
268
root 0.0397268 17.0507 4.98181 -13.1315 -77.8861 25.0838
lowerback -5.46009 0.728991 2.53345
upperback -6.6275 0.716635 -0.249433
thorax -3.7539 0.163443 -1.65563
lowerneck -8.54521 12.3879 8.02528
upperneck 35.6502 16.0712 -1.12094
head 14.4692 7.5726 0.545333
rclavicle -2.0773e-014 -7.15625e-015
rhumerus 0.885121 -2.6434 -6.89229
rradius 110.614
rwrist -51.534
rhand -2.67751 -41.5824
rfingers 7.12502
rthumb 23.0234 -70.2272
lclavicle -2.0773e-014 -7.15625e-015
lhumerus 30.3519 27.2376 -8.27117
lradius 45.1436
lwrist 42.8006
lhand -21.0165 -18.9396
lfingers 7.12502
lthumb 5.35846 10.9727
rfemur -39.5258 10.1572 4.08682
rtibia 63.0666
rfoot -6.20447 -8.19831
rtoes -22.2079
lfemur -22.3414 -1.8741 -34.4757
ltibia 29.7172
lfoot -17.9172 11.3111
ltoes 15.2151
269
root 0.0445957 17.0411 4.97206 -13.1387 -77.8404 25.0435
lowerback -5.41087 0.747521 2.46502
upperback -6.56284 0.747868 -0.232234
thorax -3.71269 0.185244 -1.59908
lowerneck -8.59631 12.3152 8.14839
upperneck 35.832 16.0239 -1.37167
head 14.6064 7.52395 0.432515
rclavicle -3.97569e-016 4.77083e-015
rhumerus 0.667979 -2.28341 -7.19639
rradius 110.483
rwrist -51.3178
rhand -2.98754 -41.4867
rfingers 7.12502
rthumb 22.7259 -70.1683
lclavicle -3.97569e-016 4.77083e-015
lhumerus 30.4309 27.074 -8.0977
lradius 45.4484
lwrist 42.7135
lhand -21.1999 -20.0311
lfingers 7.12502
lthumb 5.18138 9.88553
rfemur -39.7817 10.0786 4.2436
rtibia 63.2606
rfoot -6.15764 -8.23729
rtoes -21.9059
lfemur -22.3916 -1.38185 -34.7096
ltibia 29.6673
lfoot -16.8152 12.3788
ltoes 9.1601
270
root 0.0476414 17.0522 4.96948 -12.8413 -77.8012 24.712
lowerback -5.40366 0.839674 2.52286
upperback -6.49675 0.871807 -0.248377
thorax -3.64083 0.247572 -1.64518
lowerneck -8.6663 12.1986 8.23044
upperneck 35.9455 15.8956 -1.55504
head 14.6981 7.44824 0.33591
rclavicle -8.00108e-015 -1.03368e-014
rhumerus 0.261291 -1.99148 -7.57651
rradius 110.267
rwrist -51.0267
rhand -3.42155 -41.6925
rfingers 7.12502
rthumb 22.3093 -70.4246
lclavicle -8.00108e-015 -1.03368e-014
lhumerus 30.7685 26.9858 -7.68116
lradius 45.8278
lwrist 42.6361
lhand -21.2038 -19.9422
lfingers 7.12502
lthumb 5.1776 9.97457
rfemur -39.949 10.0342 4.45243
rtibia 63.3473
rfoot -6.03685 -8.19832
rtoes -22.0801
lfemur -22.271 -1.92123 -34.4311
ltibia 29.7314
lfoot -17.4125 11.7929
ltoes 12.2605
271
root 0.0504854 17.0457 4.96452 -13.0189 -77.7792 24.8445
lowerback -5.34686 0.91771 2.53908
upperback -6.45234 0.979082 -0.262163
thorax -3.62052 0.302204 -1.66656
lowerneck -8.76351 12.1167 8.18005
upperneck 36.0578 15.7881 -1.56988
head 14.7616 7.38745 0.329213
rclavicle -2.13694e-015 -8.74653e-015
rhumerus -0.0924214 -1.62041 -8.09671
rradius 110.177
rwrist -51.3842
rhand -4.0725 -42.2826
rfingers 7.12502
rthumb 21.6843 -71.0882
lclavicle -2.13694e-015 -8.74653e-015
lhumerus 30.9947 26.8563 -7.39223
lradius 46.3091
lwrist 42.7718
lhand -21.0895 -18.8789
lfingers 7.12502
lthumb 5.28789 11.0351
rfemur -40.1486 10.2146 4.43735
rtibia 63.5527
rfoot -6.41716 -7.83892
rtoes -19.462
lfemur -22.365 -1.31387 -34.6825
ltibia 29.7788
lfoot -16.5367 12.4019
ltoes 6.96994
272
root 0.0548232 17.0528 4.96198 -13.0795 -77.7698 24.8479
lowerback -5.24903 0.87258 2.54302
upperback -6.42758 0.925941 -0.145397
thorax -3.65342 0.278795 -1.5504
lowerneck -8.58081 12.0582 7.53808
upperneck 36.1197 15.7947 -1.42642
head 14.6579 7.32626 0.463961
rclavicle 2.78299e-014 -1.27222e-014
rhumerus -0.0748385 -1.26084 -8.76583
rradius 109.908
rwrist -51.7997
rhand -4.46837 -42.7361
rfingers 7.12502
rthumb 21.3041 -71.5851
lclavicle 2.78299e-014 -1.27222e-014
lhumerus 30.7077 26.6168 -7.48427
lradius 46.8008
lwrist 42.9748
lhand -21.2219 -19.1402
lfingers 7.12502
lthumb 5.16011 10.777
rfemur -40.2537 10.329 4.50133
rtibia 63.6277
rfoot -6.61859 -7.56696
rtoes -17.8866
lfemur -22.2898 -1.88556 -34.4346
ltibia 29.9107
lfoot -17.622 11.5856
ltoes 13.3088
273
root 0.0595421 17.0423 4.95024 -12.6901 -77.744 24.436
lowerback -5.21241 0.751605 2.4892
upperback -6.39016 0.772327 0.0353618
thorax -3.64426 0.20961 -1.337
lowerneck -8.44074 12.1272 7.06686
upperneck 36.2617 15.9399 -1.24747
head 14.6262 7.34692 0.618195
rclavicle -5.1684e-015 8.74653e-015
rhumerus 0.145795 -1.06094 -9.58455
rradius 109.259
rwrist -51.0621
rhand -3.40899 -42.3808
rfingers 7.12502
rthumb 22.3214 -71.1114
lclavicle -5.1684e-015 8.74653e-015
lhumerus 30.2469 26.3154 -7.91929
lradius 47.2806
lwrist 43.4156
lhand -21.4714 -20.0603
lfingers 7.12502
lthumb 4.9192 9.86259
rfemur -40.5243 10.2749 4.77065
rtibia 63.8198
rfoot -6.41244 -7.52454
rtoes -19.63
lfemur -22.4622 -1.02912 -34.6113
ltibia 29.9514
lfoot -16.8081 12.1044
ltoes 8.01169
